# File created by Blade
# Date/Time:  Wed Jan 21 15:55:51 2015
# Frame Rate: 120.000 fps
#------------------------------------------------------
:FULLY-SPECIFIED
:DEGREES
1143
root 18.744245 35.140695 -16.122569 -176.880346 5.790647 -190.005658
Spine 16.040950 11.551640 -0.183394
Head 12.843429 -4.642034 -11.615063
LeftShoulder -8.464735 -11.079364 -0.982069
LeftArm -33.903612 6.221483 -86.163201
LeftForeArm 19.201090 -0.000000 104.288075
LeftHand -9.513710 0.000000 -5.530942
LeftHandThumb1 -26.253704 0.000000 33.147579
RightShoulder -4.882455 -13.384481 0.003816
RightArm 27.573969 -6.524173 54.091907
RightForeArm -35.324775 -0.000000 89.623023
RightHand -11.229177 -0.000000 -7.024011
RightHandThumb1 -24.326973 -0.000000 -32.862282
LeftUpLeg -15.037430 21.559255 8.385319
LeftLeg 20.063475 -0.000000 -0.000000
LeftFoot -8.073983 30.851271 -16.727761
LeftToeBase 25.387460 -0.000000 -0.000000
RightUpLeg -22.045342 -19.000329 -15.665606
RightLeg 25.419878 -0.000000 -0.000000
RightFoot -24.045046 -31.412379 16.761217
RightToeBase 11.876452 -0.000000 -0.000000
1144
root 18.843217 35.243109 -16.147085 -176.708558 5.191224 -190.005238
Spine 15.749420 11.564494 -0.306528
Head 13.119525 -4.901027 -11.630420
LeftShoulder -8.582085 -11.032514 -0.972095
LeftArm -33.919685 6.307302 -86.153248
LeftForeArm 19.995671 0.000000 103.937177
LeftHand -9.416525 -0.000000 -6.061302
LeftHandThumb1 -26.253704 0.000000 33.147579
RightShoulder -4.978529 -13.524133 0.022105
RightArm 27.236709 -6.729441 54.312132
RightForeArm -35.104078 0.000000 88.742485
RightHand -11.192243 0.000000 -7.679945
RightHandThumb1 -24.326973 -0.000000 -32.862282
LeftUpLeg -15.777555 21.402745 7.231747
LeftLeg 20.712219 -0.000000 -0.000000
LeftFoot -9.135183 30.171321 -17.117453
LeftToeBase 25.304143 -0.000000 -0.000000
RightUpLeg -21.278878 -18.848213 -15.585869
RightLeg 24.304345 -0.000000 -0.000000
RightFoot -23.808035 -32.133995 16.491799
RightToeBase 11.054652 -0.000000 -0.000000
1145
root 18.933835 35.341964 -16.185189 -176.697342 4.605084 -190.075673
Spine 15.645412 11.590210 -0.489780
Head 13.360994 -5.126068 -11.627446
LeftShoulder -8.691138 -10.989110 -0.959548
LeftArm -33.858086 6.343141 -86.142961
LeftForeArm 20.699210 -0.000000 103.539757
LeftHand -9.411427 -0.000000 -6.532421
LeftHandThumb1 -26.253704 0.000000 33.147579
RightShoulder -5.067688 -13.562757 0.094808
RightArm 26.886198 -6.894428 54.555040
RightForeArm -35.047399 -0.000000 87.755517
RightHand -11.031298 -0.000000 -8.084476
RightHandThumb1 -24.326973 -0.000000 -32.862282
LeftUpLeg -16.234345 21.164987 6.081311
LeftLeg 21.208410 -0.000000 -0.000000
LeftFoot -10.112236 29.301432 -17.576996
LeftToeBase 24.822208 -0.000000 -0.000000
RightUpLeg -20.366227 -18.744959 -15.631705
RightLeg 23.243808 -0.000000 -0.000000
RightFoot -23.556483 -32.709128 16.242428
RightToeBase 9.906148 -0.000000 -0.000000
1146
root 19.019157 35.430682 -16.223638 -176.666245 4.020319 -190.089766
Spine 15.515202 11.566585 -0.605986
Head 13.595187 -5.302463 -11.634261
LeftShoulder -8.822353 -11.002979 -0.998149
LeftArm -33.844116 6.376745 -86.073177
LeftForeArm 21.208120 -0.000000 103.132593
LeftHand -9.440527 -0.000000 -6.905170
LeftHandThumb1 -26.253704 0.000000 33.147579
RightShoulder -5.139123 -13.652491 0.150820
RightArm 26.651642 -7.130571 54.713406
RightForeArm -34.804358 0.000000 86.647874
RightHand -10.883049 -0.000000 -8.632359
RightHandThumb1 -24.326973 -0.000000 -32.862282
LeftUpLeg -16.713984 21.023601 4.981132
LeftLeg 21.760035 -0.000000 -0.000000
LeftFoot -11.033342 28.030901 -17.942099
LeftToeBase 24.602936 -0.000000 -0.000000
RightUpLeg -19.491529 -18.667100 -15.617568
RightLeg 22.204720 -0.000000 -0.000000
RightFoot -23.307822 -33.325182 15.866211
RightToeBase 9.588933 -0.000000 -0.000000
1147
root 19.098695 35.512762 -16.265117 -176.654575 3.468269 -190.122552
Spine 15.395180 11.556568 -0.764136
Head 13.854051 -5.475392 -11.623940
LeftShoulder -8.952206 -11.066539 -1.000426
LeftArm -33.889286 6.315933 -85.968767
LeftForeArm 21.680003 -0.000000 102.648468
LeftHand -9.223613 -0.000000 -7.315968
LeftHandThumb1 -26.253704 0.000000 33.147579
RightShoulder -5.195270 -13.680348 0.238759
RightArm 26.394879 -7.413871 54.833228
RightForeArm -34.474847 0.000000 85.450659
RightHand -10.698507 -0.000000 -9.200982
RightHandThumb1 -24.326973 -0.000000 -32.862282
LeftUpLeg -17.087164 20.813626 3.906051
LeftLeg 22.242810 -0.000000 -0.000000
LeftFoot -11.714206 26.470894 -18.251346
LeftToeBase 23.539356 -0.000000 -0.000000
RightUpLeg -18.651298 -18.633887 -15.626486
RightLeg 21.228924 -0.000000 -0.000000
RightFoot -23.084575 -33.836922 15.656051
RightToeBase 8.873938 -0.000000 -0.000000
